# xmcd
#
# Track frame offsets:
#	183
#	11595
#	23795
#	39095
#	48245
#	60895
#	74870
#	87658
#	99620
#	111120
#	125495
#	138870
#	148833
#	161508
#	176145
#	187733
#
# Disc length: 2773
#
# Revision: 1
# Processed by: cddbd v1.5.1PL0 Copyright (c) Steve Scherf et al.
# Submitted via: EasyCDDAExtractor 5.0.5.1
# Normalized: r0:DSETVAR1
#
DISCID=d80ad310
DTITLE=Various Artist - Blues Masters
DYEAR=1900
DGENRE=Blues
TTITLE0=Elmore James - Shake Your Money Maker
TTITLE1=Johnny Lee Hooker - Crawling King Snake Blues
TTITLE2=Muddy Waters - They Call Me Muddy Waters
TTITLE3=Sonny Boy Williamson - One Way Out
TTITLE4=Etta James - Spoonful
TTITLE5=Little Walter - You're So Fine
TTITLE6=Howlin' Wolf - Back Door Man
TTITLE7=Johnny Lee Hooker - Whiskey And Wimmen
TTITLE8=Muddy Waters - Just A Dream (On My Mind)
TTITLE9=Little Milton - If Walls Could Talk
TTITLE10=Lowell Fulson - Hung Down Head
TTITLE11=Koko Taylor - I Don't Care Who Knows
TTITLE12=Little Walter - Tell Me Mama
TTITLE13=Mitty Collier - I Gotta Get Away From It All
TTITLE14=Little Milton - I Play Dirty
TTITLE15=I Want To Know - I Want To Know
EXTD=
EXTT0=
EXTT1=
EXTT2=
EXTT3=
EXTT4=
EXTT5=
EXTT6=
EXTT7=
EXTT8=
EXTT9=
EXTT10=
EXTT11=
EXTT12=
EXTT13=
EXTT14=
EXTT15=
PLAYORDER=
